<?xml version="1.0" encoding="UTF-8" standalone="no"?>
<!DOCTYPE svg PUBLIC "-//W3C//DTD SVG 1.1//EN" "http://www.w3.org/Graphics/SVG/1.1/DTD/svg11.dtd">
<svg width="100%" height="100%" viewBox="0 0 263 208" version="1.1" xmlns="http://www.w3.org/2000/svg" xmlns:xlink="http://www.w3.org/1999/xlink" xml:space="preserve" xmlns:serif="http://www.serif.com/" style="fill-rule:evenodd;clip-rule:evenodd;stroke-linejoin:round;stroke-miterlimit:2;">
    <g transform="matrix(1,0,0,1,-365.858,-66.9943)">
        <g transform="matrix(0.262144,0,0,0.262144,496.725,134.103)">
            <g transform="matrix(1,0,0,1,-256,-256)">
                <clipPath id="_clip1">
                    <rect x="0" y="0" width="512" height="512"/>
                </clipPath>
                <g clip-path="url(#_clip1)">
                    <g>
                        <g>
                            <path d="M286.379,362.667L298.667,362.667C304.555,362.667 309.334,357.888 309.334,352C309.334,346.112 304.555,341.333 298.667,341.333L282.816,341.333L278.549,315.69C302.72,306.539 320,283.328 320,256C320,232.427 307.029,212.011 288,200.896L288,160C288,154.112 283.221,149.333 277.333,149.333L266.666,149.333L266.666,10.667C266.667,4.779 261.888,0 256,0C250.112,0 245.333,4.779 245.333,10.667L245.333,149.334L234.666,149.334C228.778,149.334 223.999,154.113 223.999,160.001L223.999,200.897C204.97,211.99 191.999,232.406 191.999,256.001C191.999,283.329 209.3,306.54 233.45,315.692L229.183,341.335L213.332,341.335C207.444,341.335 202.665,346.114 202.665,352.002C202.665,357.89 207.444,362.669 213.332,362.669L225.62,362.669L202.793,499.586C202.281,502.679 203.156,505.837 205.182,508.226C207.208,510.615 210.174,512.002 213.31,512.002L298.643,512.002C298.771,511.981 298.92,512.002 299.07,512.002C304.958,512.002 309.737,507.223 309.737,501.335C309.737,499.692 309.353,498.114 308.692,496.706L286.379,362.667Z" style="fill-rule:nonzero;"/>
                        </g>
                    </g>
                </g>
            </g>
        </g>
        <g transform="matrix(0.309131,0,0,0.16689,320.89,135.545)">
            <path d="M303.851,633.046L303.851,480.318L338.233,480.318C344.407,480.318 349.58,481.933 353.754,485.165C357.927,488.396 361.068,492.921 363.175,498.737C365.282,504.554 366.335,511.291 366.335,518.947C366.335,524.764 365.677,529.947 364.362,534.496C363.047,539.045 361.235,542.811 358.927,545.794C356.619,548.777 353.948,550.865 350.915,552.058L350.915,553.549C354.244,553.848 357.323,555.513 360.155,558.546C362.987,561.579 365.261,565.792 366.979,571.186C368.697,576.58 369.556,582.957 369.556,590.315C369.556,598.518 368.429,605.838 366.174,612.277C363.919,618.715 360.658,623.786 356.391,627.49C352.123,631.194 346.943,633.046 340.85,633.046L303.851,633.046ZM323.78,603.29L336.1,603.29C340.421,603.29 343.608,601.774 345.661,598.741C347.715,595.709 348.741,591.483 348.741,586.064C348.741,582.136 348.245,578.743 347.252,575.884C346.259,573.026 344.85,570.813 343.024,569.247C341.199,567.681 339.012,566.898 336.462,566.898L323.78,566.898L323.78,603.29ZM323.78,543.109L334.811,543.109C336.985,543.109 338.918,542.438 340.609,541.096C342.3,539.753 343.622,537.814 344.574,535.279C345.527,532.743 346.004,529.686 346.004,526.106C346.004,520.985 345.024,516.958 343.065,514.025C341.105,511.092 338.462,509.625 335.133,509.625L323.78,509.625L323.78,543.109Z" style="fill-rule:nonzero;"/>
            <path d="M378.896,633.046L378.896,480.318L436.388,480.318L436.388,510.296L398.825,510.296L398.825,541.618L433.449,541.618L433.449,571.671L398.825,571.671L398.825,603.067L436.388,603.067L436.388,633.046L378.896,633.046Z" style="fill-rule:nonzero;"/>
            <path d="M447.983,633.046L447.983,480.318L482.043,480.318C488.216,480.318 493.551,482.368 498.046,486.47C502.542,490.571 506.011,496.438 508.454,504.069C510.896,511.701 512.117,520.737 512.117,531.177C512.117,541.767 510.869,550.753 508.373,558.136C505.877,565.519 502.334,571.137 497.744,574.99C493.155,578.843 487.72,580.769 481.439,580.769L459.9,580.769L459.9,551.685L477.735,551.685C480.741,551.685 483.258,550.952 485.284,549.485C487.31,548.019 488.847,545.781 489.894,542.773C490.941,539.766 491.464,535.9 491.464,531.177C491.464,526.454 490.941,522.539 489.894,519.432C488.847,516.324 487.304,513.988 485.264,512.422C483.224,510.856 480.714,510.073 477.735,510.073L467.912,510.073L467.912,633.046L447.983,633.046ZM494.403,563.244L514.936,633.046L493.195,633.046L473.065,563.244L494.403,563.244Z" style="fill-rule:nonzero;"/>
            <path d="M521.74,633.046L521.74,480.318L541.668,480.318L541.668,603.067L575.97,603.067L575.97,633.046L521.74,633.046Z" style="fill-rule:nonzero;"/>
            <rect x="586.8" y="480.318" width="19.929" height="152.728" style="fill-rule:nonzero;"/>
            <path d="M688.216,480.318L688.216,633.046L671.306,633.046L638.494,544.899L637.971,544.899L637.971,633.046L618.042,633.046L618.042,480.318L635.193,480.318L667.643,568.315L668.327,568.315L668.327,480.318L688.216,480.318Z" style="fill-rule:nonzero;"/>
            <path d="M704.682,633.046L704.682,480.318L762.174,480.318L762.174,510.296L724.611,510.296L724.611,541.618L759.235,541.618L759.235,571.671L724.611,571.671L724.611,603.067L762.174,603.067L762.174,633.046L704.682,633.046Z" style="fill-rule:nonzero;"/>
            <path d="M773.769,633.046L773.769,480.318L807.829,480.318C814.002,480.318 819.337,482.368 823.832,486.47C828.328,490.571 831.797,496.438 834.24,504.069C836.682,511.701 837.903,520.737 837.903,531.177C837.903,541.767 836.655,550.753 834.159,558.136C831.663,565.519 828.12,571.137 823.53,574.99C818.941,578.843 813.506,580.769 807.225,580.769L785.686,580.769L785.686,551.685L803.521,551.685C806.527,551.685 809.043,550.952 811.07,549.485C813.096,548.019 814.633,545.781 815.68,542.773C816.726,539.766 817.25,535.9 817.25,531.177C817.25,526.454 816.726,522.539 815.68,519.432C814.633,516.324 813.09,513.988 811.05,512.422C809.01,510.856 806.5,510.073 803.521,510.073L793.698,510.073L793.698,633.046L773.769,633.046ZM820.189,563.244L840.721,633.046L818.981,633.046L798.851,563.244L820.189,563.244Z" style="fill-rule:nonzero;"/>
        </g>
        <g transform="matrix(0.494655,0,0,0.169675,215.363,167.667)">
            <path d="M304.243,630.539L304.243,480.318L339.417,480.318L339.417,509.804L316.697,509.804L316.697,540.612L337.178,540.612L337.178,570.172L316.697,570.172L316.697,630.539L304.243,630.539Z" style="fill-rule:nonzero;"/>
            <path d="M346.613,630.539L346.613,480.318L382.542,480.318L382.542,509.804L359.067,509.804L359.067,540.612L380.705,540.612L380.705,570.172L359.067,570.172L359.067,601.052L382.542,601.052L382.542,630.539L346.613,630.539Z" style="fill-rule:nonzero;"/>
            <path d="M389.788,630.539L389.788,480.318L411.074,480.318C414.931,480.318 418.265,482.335 421.075,486.369C423.884,490.403 426.052,496.173 427.579,503.68C429.105,511.186 429.868,520.073 429.868,530.342C429.868,540.758 429.088,549.597 427.528,556.859C425.968,564.12 423.754,569.646 420.886,573.436C418.018,577.226 414.621,579.12 410.696,579.12L397.235,579.12L397.235,550.514L408.381,550.514C410.26,550.514 411.833,549.793 413.099,548.35C414.365,546.907 415.326,544.707 415.98,541.748C416.634,538.79 416.961,534.988 416.961,530.342C416.961,525.697 416.634,521.846 415.98,518.79C415.326,515.734 414.361,513.435 413.086,511.895C411.812,510.355 410.243,509.584 408.381,509.584L402.242,509.584L402.242,630.539L389.788,630.539ZM418.798,561.883L431.63,630.539L418.043,630.539L405.463,561.883L418.798,561.883Z" style="fill-rule:nonzero;"/>
            <path d="M479.736,480.318L479.736,630.539L469.169,630.539L448.663,543.839L448.336,543.839L448.336,630.539L435.882,630.539L435.882,480.318L446.6,480.318L466.879,566.871L467.307,566.871L467.307,480.318L479.736,480.318Z" style="fill-rule:nonzero;"/>
            <path d="M517.879,525.355C517.712,519.976 516.969,515.782 515.653,512.775C514.336,509.768 512.461,508.264 510.029,508.264C508.419,508.264 507.077,508.875 506.004,510.098C504.93,511.32 504.125,512.995 503.588,515.122C503.051,517.249 502.775,519.682 502.758,522.421C502.724,524.67 502.879,526.651 503.223,528.362C503.567,530.074 504.07,531.577 504.733,532.873C505.396,534.169 506.196,535.306 507.136,536.284C508.075,537.262 509.132,538.118 510.306,538.851L514.734,541.785C517.284,543.399 519.536,545.55 521.49,548.24C523.444,550.929 525.088,554.132 526.421,557.849C527.755,561.565 528.765,565.844 529.453,570.685C530.141,575.526 530.493,580.954 530.51,586.969C530.493,596.456 529.671,604.597 528.044,611.395C526.417,618.192 524.081,623.4 521.037,627.018C517.992,630.637 514.323,632.446 510.029,632.446C505.718,632.446 501.961,630.564 498.757,626.798C495.554,623.033 493.063,617.312 491.285,609.634C489.507,601.957 488.593,592.25 488.542,580.514L500.468,580.514C500.569,585.355 501.013,589.39 501.802,592.617C502.59,595.844 503.676,598.289 505.06,599.952C506.444,601.615 508.05,602.446 509.878,602.446C511.556,602.446 512.986,601.786 514.168,600.465C515.351,599.145 516.261,597.311 516.898,594.964C517.535,592.617 517.862,589.927 517.879,586.896C517.862,584.059 517.561,581.627 516.973,579.597C516.386,577.568 515.485,575.807 514.269,574.316C513.053,572.825 511.505,571.443 509.627,570.172L504.242,566.504C499.781,563.521 496.267,558.692 493.7,552.018C491.134,545.343 489.859,536.308 489.876,524.915C489.859,515.624 490.714,507.482 492.442,500.489C494.17,493.496 496.56,488.044 499.613,484.132C502.666,480.22 506.146,478.264 510.054,478.264C514.047,478.264 517.514,480.232 520.458,484.168C523.402,488.105 525.687,493.618 527.314,500.709C528.941,507.799 529.772,516.015 529.805,525.355L517.879,525.355Z" style="fill-rule:nonzero;"/>
            <path d="M536.02,630.539L536.02,480.318L571.949,480.318L571.949,509.804L548.474,509.804L548.474,540.612L570.112,540.612L570.112,570.172L548.474,570.172L548.474,601.052L571.949,601.052L571.949,630.539L536.02,630.539Z" style="fill-rule:nonzero;"/>
            <path d="M579.195,630.539L579.195,480.318L591.649,480.318L591.649,540.612L611.954,540.612L611.954,480.318L624.383,480.318L624.383,630.539L611.954,630.539L611.954,570.172L591.649,570.172L591.649,630.539L579.195,630.539Z" style="fill-rule:nonzero;"/>
            <path d="M630.749,509.804L630.749,480.318L674.301,480.318L674.301,509.804L658.677,509.804L658.677,630.539L646.398,630.539L646.398,509.804L630.749,509.804Z" style="fill-rule:nonzero;"/>
            <path d="M709.903,480.318L722.332,480.318L722.332,577.213C722.332,588.412 721.418,598.155 719.59,606.443C717.761,614.732 715.212,621.138 711.941,625.661C708.67,630.185 704.871,632.446 700.543,632.446C696.166,632.446 692.341,630.185 689.07,625.661C685.799,621.138 683.258,614.732 681.447,606.443C679.635,598.155 678.729,588.412 678.729,577.213L678.729,480.318L691.184,480.318L691.184,574.059C691.184,579.243 691.574,583.864 692.354,587.923C693.134,591.981 694.228,595.16 695.637,597.458C697.046,599.756 698.682,600.906 700.543,600.906C702.405,600.906 704.037,599.756 705.437,597.458C706.838,595.16 707.932,591.981 708.721,587.923C709.509,583.864 709.903,579.243 709.903,574.059L709.903,480.318Z" style="fill-rule:nonzero;"/>
            <path d="M732.069,630.539L732.069,480.318L753.355,480.318C757.213,480.318 760.547,482.335 763.356,486.369C766.166,490.403 768.334,496.173 769.86,503.68C771.387,511.186 772.15,520.073 772.15,530.342C772.15,540.758 771.37,549.597 769.81,556.859C768.25,564.12 766.036,569.646 763.168,573.436C760.299,577.226 756.903,579.12 752.978,579.12L739.517,579.12L739.517,550.514L750.663,550.514C752.541,550.514 754.114,549.793 755.38,548.35C756.647,546.907 757.607,544.707 758.261,541.748C758.915,538.79 759.243,534.988 759.243,530.342C759.243,525.697 758.915,521.846 758.261,518.79C757.607,515.734 756.643,513.435 755.368,511.895C754.093,510.355 752.525,509.584 750.663,509.584L744.524,509.584L744.524,630.539L732.069,630.539ZM761.079,561.883L773.911,630.539L760.324,630.539L747.744,561.883L761.079,561.883Z" style="fill-rule:nonzero;"/>
            <path d="M778.163,480.318L793.586,480.318L806.67,573.326L807.274,573.326L820.357,480.318L835.78,480.318L835.78,630.539L823.653,630.539L823.653,538.264L823.225,538.264L810.846,629.586L803.097,629.586L790.718,537.751L790.29,537.751L790.29,630.539L778.163,630.539L778.163,480.318Z" style="fill-rule:nonzero;"/>
        </g>
    </g>
</svg>
