<?xml version="1.0" encoding="UTF-8" standalone="no"?>
<!DOCTYPE svg PUBLIC "-//W3C//DTD SVG 1.1//EN" "http://www.w3.org/Graphics/SVG/1.1/DTD/svg11.dtd">
<svg width="100%" height="100%" viewBox="0 0 27 107" version="1.1" xmlns="http://www.w3.org/2000/svg" xmlns:xlink="http://www.w3.org/1999/xlink" xml:space="preserve" xmlns:serif="http://www.serif.com/" style="fill-rule:evenodd;clip-rule:evenodd;stroke-linejoin:round;stroke-miterlimit:2;">
    <g transform="matrix(1,0,0,1,-38.8564,-27.7923)">
        <g transform="matrix(1,0,0,1,-365.858,-66.9943)">
            <g transform="matrix(0.207047,0,0,0.207047,364.961,94.7866)">
                <g>
                    <g>
                        <clipPath id="_clip1">
                            <rect x="0" y="0" width="512" height="512"/>
                        </clipPath>
                        <g clip-path="url(#_clip1)">
                            <g>
                                <g>
                                    <path d="M286.379,362.667L298.667,362.667C304.555,362.667 309.334,357.888 309.334,352C309.334,346.112 304.555,341.333 298.667,341.333L282.816,341.333L278.549,315.69C302.72,306.539 320,283.328 320,256C320,232.427 307.029,212.011 288,200.896L288,160C288,154.112 283.221,149.333 277.333,149.333L266.666,149.333L266.666,10.667C266.667,4.779 261.888,0 256,0C250.112,0 245.333,4.779 245.333,10.667L245.333,149.334L234.666,149.334C228.778,149.334 223.999,154.113 223.999,160.001L223.999,200.897C204.97,211.99 191.999,232.406 191.999,256.001C191.999,283.329 209.3,306.54 233.45,315.692L229.183,341.335L213.332,341.335C207.444,341.335 202.665,346.114 202.665,352.002C202.665,357.89 207.444,362.669 213.332,362.669L225.62,362.669L202.793,499.586C202.281,502.679 203.156,505.837 205.182,508.226C207.208,510.615 210.174,512.002 213.31,512.002L298.643,512.002C298.771,511.981 298.92,512.002 299.07,512.002C304.958,512.002 309.737,507.223 309.737,501.335C309.737,499.692 309.353,498.114 308.692,496.706L286.379,362.667Z" style="fill:white;fill-rule:nonzero;"/>
                                </g>
                            </g>
                        </g>
                    </g>
                </g>
            </g>
        </g>
    </g>
</svg>
