<svg viewBox="0 0 263 208" xmlns="http://www.w3.org/2000/svg" xml:space="preserve" style="fill-rule:evenodd;clip-rule:evenodd;stroke-linejoin:round;stroke-miterlimit:2"><g transform="matrix(.26214 0 0 .26214 63.758 0)"><clipPath id="_clip1"><path d="M0 0h512v512H0z"/></clipPath><g clip-path="url('#_clip1')"><path d="M286.379 362.667h12.288c5.888 0 10.667-4.779 10.667-10.667s-4.779-10.667-10.667-10.667h-15.851l-4.267-25.643C302.72 306.539 320 283.328 320 256c0-23.573-12.971-43.989-32-55.104V160c0-5.888-4.779-10.667-10.667-10.667h-10.667V10.667C266.667 4.779 261.888 0 256 0c-5.888 0-10.667 4.779-10.667 10.667v138.667h-10.667c-5.888 0-10.667 4.779-10.667 10.667v40.896c-19.029 11.093-32 31.509-32 55.104 0 27.328 17.301 50.539 41.451 59.691l-4.267 25.643h-15.851c-5.888 0-10.667 4.779-10.667 10.667s4.779 10.667 10.667 10.667h12.288l-22.827 136.917a10.664 10.664 0 0 0 2.389 8.64 10.658 10.658 0 0 0 8.128 3.776h85.333c.128-.021.277 0 .427 0 5.888 0 10.667-4.779 10.667-10.667 0-1.643-.384-3.221-1.045-4.629l-22.313-134.039Z" style="fill-rule:nonzero"/></g></g><path d="M303.851 633.046V480.318h34.382c6.174 0 11.347 1.615 15.521 4.847 4.173 3.231 7.314 7.756 9.421 13.572 2.107 5.817 3.16 12.554 3.16 20.21 0 5.817-.658 11-1.973 15.549-1.315 4.549-3.127 8.315-5.435 11.298-2.308 2.983-4.979 5.071-8.012 6.264v1.491c3.329.299 6.408 1.964 9.24 4.997s5.106 7.246 6.824 12.64 2.577 11.771 2.577 19.129c0 8.203-1.127 15.523-3.382 21.962-2.255 6.438-5.516 11.509-9.783 15.213-4.268 3.704-9.448 5.556-15.541 5.556h-36.999Zm19.929-29.756h12.32c4.321 0 7.508-1.516 9.561-4.549 2.054-3.032 3.08-7.258 3.08-12.677 0-3.928-.496-7.321-1.489-10.18-.993-2.858-2.402-5.071-4.228-6.637-1.825-1.566-4.012-2.349-6.562-2.349H323.78v36.392Zm0-60.181h11.031c2.174 0 4.107-.671 5.798-2.013 1.691-1.343 3.013-3.282 3.965-5.817.953-2.536 1.43-5.593 1.43-9.173 0-5.121-.98-9.148-2.939-12.081-1.96-2.933-4.603-4.4-7.932-4.4H323.78v33.484ZM378.896 633.046V480.318h57.492v29.978h-37.563v31.322h34.624v30.053h-34.624v31.396h37.563v29.979h-57.492ZM447.983 633.046V480.318h34.06c6.173 0 11.508 2.05 16.003 6.152 4.496 4.101 7.965 9.968 10.408 17.599 2.442 7.632 3.663 16.668 3.663 27.108 0 10.59-1.248 19.576-3.744 26.959-2.496 7.383-6.039 13.001-10.629 16.854-4.589 3.853-10.024 5.779-16.305 5.779H459.9v-29.084h17.835c3.006 0 5.523-.733 7.549-2.2 2.026-1.466 3.563-3.704 4.61-6.712 1.047-3.007 1.57-6.873 1.57-11.596s-.523-8.638-1.57-11.745c-1.047-3.108-2.59-5.444-4.63-7.01-2.04-1.566-4.55-2.349-7.529-2.349h-9.823v122.973h-19.929Zm46.42-69.802 20.533 69.802h-21.741l-20.13-69.802h21.338ZM521.74 633.046V480.318h19.928v122.749h34.302v29.979h-54.23ZM586.8 480.318h19.929v152.728H586.8zM688.216 480.318v152.728h-16.91l-32.812-88.147h-.523v88.147h-19.929V480.318h17.151l32.45 87.997h.684v-87.997h19.889ZM704.682 633.046V480.318h57.492v29.978h-37.563v31.322h34.624v30.053h-34.624v31.396h37.563v29.979h-57.492ZM773.769 633.046V480.318h34.06c6.173 0 11.508 2.05 16.003 6.152 4.496 4.101 7.965 9.968 10.408 17.599 2.442 7.632 3.663 16.668 3.663 27.108 0 10.59-1.248 19.576-3.744 26.959-2.496 7.383-6.039 13.001-10.629 16.854-4.589 3.853-10.024 5.779-16.305 5.779h-21.539v-29.084h17.835c3.006 0 5.522-.733 7.549-2.2 2.026-1.466 3.563-3.704 4.61-6.712 1.046-3.007 1.57-6.873 1.57-11.596s-.524-8.638-1.57-11.745c-1.047-3.108-2.59-5.444-4.63-7.01-2.04-1.566-4.55-2.349-7.529-2.349h-9.823v122.973h-19.929Zm46.42-69.802 20.532 69.802h-21.74l-20.13-69.802h21.338Z" style="fill-rule:nonzero" transform="matrix(.30913 0 0 .16689 -44.968 68.55)"/><path d="M304.243 630.539V480.318h35.174v29.486h-22.72v30.808h20.481v29.56h-20.481v60.367h-12.454ZM346.613 630.539V480.318h35.929v29.486h-23.475v30.808h21.638v29.56h-21.638v30.88h23.475v29.487h-35.929ZM389.788 630.539V480.318h21.286c3.857 0 7.191 2.017 10.001 6.051 2.809 4.034 4.977 9.804 6.504 17.311 1.526 7.506 2.289 16.393 2.289 26.662 0 10.416-.78 19.255-2.34 26.517-1.56 7.261-3.774 12.787-6.642 16.577-2.868 3.79-6.265 5.684-10.19 5.684h-13.461v-28.606h11.146c1.879 0 3.452-.721 4.718-2.164s2.227-3.643 2.881-6.602c.654-2.958.981-6.76.981-11.406 0-4.645-.327-8.496-.981-11.552-.654-3.056-1.619-5.355-2.894-6.895-1.274-1.54-2.843-2.311-4.705-2.311h-6.139v120.955h-12.454Zm29.01-68.656 12.832 68.656h-13.587l-12.58-68.656h13.335ZM479.736 480.318v150.221h-10.567l-20.506-86.7h-.327v86.7h-12.454V480.318H446.6l20.279 86.553h.428v-86.553h12.429ZM517.879 525.355c-.167-5.379-.91-9.573-2.226-12.58-1.317-3.007-3.192-4.511-5.624-4.511-1.61 0-2.952.611-4.025 1.834-1.074 1.222-1.879 2.897-2.416 5.024-.537 2.127-.813 4.56-.83 7.299-.034 2.249.121 4.23.465 5.941.344 1.712.847 3.215 1.51 4.511a14.24 14.24 0 0 0 2.403 3.411 16.458 16.458 0 0 0 3.17 2.567l4.428 2.934c2.55 1.614 4.802 3.765 6.756 6.455 1.954 2.689 3.598 5.892 4.931 9.609 1.334 3.716 2.344 7.995 3.032 12.836.688 4.841 1.04 10.269 1.057 16.284-.017 9.487-.839 17.628-2.466 24.426-1.627 6.797-3.963 12.005-7.007 15.623-3.045 3.619-6.714 5.428-11.008 5.428-4.311 0-8.068-1.882-11.272-5.648-3.203-3.765-5.694-9.486-7.472-17.164-1.778-7.677-2.692-17.384-2.743-29.12h11.926c.101 4.841.545 8.876 1.334 12.103.788 3.227 1.874 5.672 3.258 7.335 1.384 1.663 2.99 2.494 4.818 2.494 1.678 0 3.108-.66 4.29-1.981 1.183-1.32 2.093-3.154 2.73-5.501.637-2.347.964-5.037.981-8.068-.017-2.837-.318-5.269-.906-7.299-.587-2.029-1.488-3.79-2.704-5.281-1.216-1.491-2.764-2.873-4.642-4.144l-5.385-3.668c-4.461-2.983-7.975-7.812-10.542-14.486-2.566-6.675-3.841-15.71-3.824-27.103-.017-9.291.838-17.433 2.566-24.426 1.728-6.993 4.118-12.445 7.171-16.357 3.053-3.912 6.533-5.868 10.441-5.868 3.993 0 7.46 1.968 10.404 5.904 2.944 3.937 5.229 9.45 6.856 16.541 1.627 7.09 2.458 15.306 2.491 24.646h-11.926ZM536.02 630.539V480.318h35.929v29.486h-23.475v30.808h21.638v29.56h-21.638v30.88h23.475v29.487H536.02ZM579.195 630.539V480.318h12.454v60.294h20.305v-60.294h12.429v150.221h-12.429v-60.367h-20.305v60.367h-12.454ZM630.749 509.804v-29.486h43.552v29.486h-15.624v120.735h-12.279V509.804h-15.649ZM709.903 480.318h12.429v96.895c0 11.199-.914 20.942-2.742 29.23-1.829 8.289-4.378 14.695-7.649 19.218-3.271 4.524-7.07 6.785-11.398 6.785-4.377 0-8.202-2.261-11.473-6.785-3.271-4.523-5.812-10.929-7.623-19.218-1.812-8.288-2.718-18.031-2.718-29.23v-96.895h12.455v93.741c0 5.184.39 9.805 1.17 13.864.78 4.058 1.874 7.237 3.283 9.535 1.409 2.298 3.045 3.448 4.906 3.448 1.862 0 3.494-1.15 4.894-3.448 1.401-2.298 2.495-5.477 3.284-9.535.788-4.059 1.182-8.68 1.182-13.864v-93.741ZM732.069 630.539V480.318h21.286c3.858 0 7.192 2.017 10.001 6.051 2.81 4.034 4.978 9.804 6.504 17.311 1.527 7.506 2.29 16.393 2.29 26.662 0 10.416-.78 19.255-2.34 26.517-1.56 7.261-3.774 12.787-6.642 16.577-2.869 3.79-6.265 5.684-10.19 5.684h-13.461v-28.606h11.146c1.878 0 3.451-.721 4.717-2.164 1.267-1.443 2.227-3.643 2.881-6.602.654-2.958.982-6.76.982-11.406 0-4.645-.328-8.496-.982-11.552-.654-3.056-1.618-5.355-2.893-6.895-1.275-1.54-2.843-2.311-4.705-2.311h-6.139v120.955h-12.455Zm29.01-68.656 12.832 68.656h-13.587l-12.58-68.656h13.335ZM778.163 480.318h15.423l13.084 93.008h.604l13.083-93.008h15.423v150.221h-12.127v-92.275h-.428l-12.379 91.322h-7.749l-12.379-91.835h-.428v92.788h-12.127V480.318Z" style="fill-rule:nonzero" transform="matrix(.49466 0 0 .16967 -150.495 100.673)"/></svg>